<?xml version="1.0" standalone="no"?>
<!DOCTYPE svg PUBLIC "-//W3C//DTD SVG 20010904//EN"
 "http://www.w3.org/TR/2001/REC-SVG-20010904/DTD/svg10.dtd">
<svg version="1.0" xmlns="http://www.w3.org/2000/svg"
 width="512.000000pt" height="512.000000pt" viewBox="0 0 512.000000 512.000000"
 preserveAspectRatio="xMidYMid meet">
<metadata>
Created by potrace 1.16, written by Peter Selinger 2001-2019
</metadata>
<g transform="translate(0.000000,512.000000) scale(0.100000,-0.100000)"
fill="#000000" stroke="none">
<path d="M2723 4798 c-15 -19 -44 -111 -42 -134 1 -10 1 -28 1 -38 -2 -19 -3
-19 -24 1 -13 11 -44 24 -69 27 -41 6 -50 4 -78 -19 -27 -23 -31 -33 -31 -75
0 -27 5 -52 11 -55 6 -4 42 -49 80 -101 l69 -94 -10 -93 c-13 -105 -18 -127
-30 -127 -4 0 -27 24 -49 53 -22 28 -44 57 -49 62 -4 6 -11 18 -15 27 -9 25
-79 68 -121 75 -30 5 -42 1 -61 -17 -14 -13 -25 -32 -25 -42 0 -11 -4 -27 -9
-37 -8 -14 1 -32 45 -86 29 -38 54 -72 54 -76 0 -4 23 -38 50 -74 28 -36 50
-69 50 -72 0 -4 18 -28 40 -54 56 -66 65 -90 51 -130 -6 -17 -11 -45 -11 -60
0 -35 -22 -39 -37 -6 -6 12 -27 42 -48 67 -21 25 -52 67 -71 95 -56 85 -123
166 -161 197 -50 39 -79 45 -111 21 -48 -35 -62 -81 -82 -258 -5 -44 -14 -118
-19 -165 -6 -47 -11 -89 -11 -93 0 -18 -23 9 -75 88 -61 93 -69 134 -40 220 9
25 13 50 10 55 -3 5 -1 37 5 72 6 35 13 96 16 137 5 73 5 75 -27 107 -37 38
-80 45 -127 20 -36 -19 -50 -48 -56 -121 -3 -33 -8 -79 -11 -102 -6 -38 -9
-41 -26 -30 -10 6 -19 15 -19 20 0 7 -26 43 -102 142 -22 28 -23 38 -23 183
l0 155 -28 20 c-16 12 -42 21 -64 21 -29 0 -42 -7 -68 -37 l-32 -37 -20 23
c-11 12 -28 34 -38 50 -24 38 -100 87 -134 87 -22 0 -34 -9 -53 -37 -34 -53
-28 -101 23 -172 21 -30 39 -57 39 -61 0 -4 -14 -7 -30 -7 -46 0 -80 -37 -80
-88 0 -46 9 -56 75 -95 37 -21 111 -43 192 -57 24 -4 42 -18 71 -57 21 -28 45
-62 52 -76 7 -14 26 -40 42 -59 16 -18 27 -35 25 -38 -3 -2 -34 3 -70 11 -148
34 -185 37 -222 15 -31 -18 -35 -26 -35 -61 0 -21 5 -48 10 -59 13 -22 80 -59
110 -59 12 0 35 -8 53 -17 30 -16 72 -26 162 -39 22 -3 54 -12 72 -20 17 -8
45 -14 61 -14 24 0 40 -11 73 -47 42 -48 79 -102 79 -115 0 -12 -104 4 -129
19 -13 8 -47 19 -75 23 -28 5 -76 16 -106 25 -30 9 -84 21 -120 26 -64 8 -65
7 -92 -22 -49 -52 -40 -82 81 -241 123 -162 162 -217 176 -251 15 -37 15 -37
-7 -33 -13 3 -49 8 -82 11 -69 8 -100 32 -174 136 -214 301 -221 309 -288 309
-65 0 -92 -33 -84 -104 1 -10 28 -50 59 -90 32 -39 68 -88 81 -110 l23 -39
-29 6 c-16 3 -55 10 -87 16 -32 5 -72 17 -89 26 -17 8 -36 15 -43 15 -17 0
-66 56 -126 143 -29 43 -62 83 -72 89 -32 17 -108 3 -129 -22 -22 -27 -24 -83
-3 -100 8 -7 12 -16 9 -21 -7 -11 -111 -1 -141 13 -18 9 -30 7 -57 -7 -44 -24
-62 -75 -40 -116 15 -30 98 -79 133 -79 23 0 71 -20 71 -29 0 -4 -7 -16 -15
-27 -21 -30 -22 -97 -2 -127 18 -28 70 -43 110 -33 13 3 63 30 112 61 l89 56
55 -10 c116 -21 147 -29 179 -45 17 -10 32 -21 32 -25 0 -4 -35 -29 -77 -56
-144 -89 -158 -117 -102 -193 27 -37 36 -42 69 -42 21 0 41 4 44 9 5 8 61 42
141 85 21 12 151 95 195 125 21 15 30 16 60 5 19 -7 61 -18 93 -25 40 -9 57
-17 57 -28 0 -14 -65 -58 -170 -116 -20 -12 -50 -31 -66 -44 -16 -12 -50 -35
-76 -51 -29 -18 -55 -44 -67 -68 l-20 -40 37 -40 c21 -22 51 -43 67 -47 17 -3
45 -13 63 -21 18 -8 47 -14 64 -14 17 0 45 -4 62 -9 17 -5 63 -19 101 -30 153
-44 185 -56 185 -68 0 -7 -4 -13 -9 -13 -5 0 -33 -16 -62 -35 -38 -25 -65 -35
-92 -35 -42 0 -144 22 -217 47 -25 8 -70 19 -100 24 -30 6 -74 16 -97 24 -56
19 -98 10 -124 -27 -54 -75 50 -177 195 -193 59 -7 106 -22 106 -35 0 -8 -41
-46 -55 -51 -5 -2 -40 -21 -78 -43 -47 -26 -71 -35 -80 -28 -6 5 -32 12 -57
15 -25 3 -74 12 -110 21 -109 25 -160 1 -160 -78 0 -38 37 -90 70 -101 34 -11
22 -29 -45 -70 -76 -46 -89 -72 -57 -113 24 -32 55 -32 89 0 21 20 49 38 83
54 8 4 36 23 62 41 26 18 50 33 52 33 3 0 42 23 88 51 46 29 108 67 138 84 62
37 213 135 249 162 27 20 108 69 131 80 8 3 29 17 45 29 17 12 113 72 215 134
102 62 235 145 295 185 61 39 160 102 220 140 61 37 133 82 160 100 28 17 70
43 95 57 25 14 102 64 172 110 210 138 323 208 365 227 11 5 24 14 27 19 3 6
25 20 48 32 24 12 79 46 123 75 118 77 255 165 321 206 33 20 106 65 164 101
58 36 125 77 150 92 25 15 70 45 100 67 30 22 64 44 75 50 11 5 34 18 50 29
17 11 42 26 56 34 51 29 47 79 -7 96 -32 11 -39 9 -87 -23 -53 -35 -92 -57
-100 -57 -3 0 -8 16 -11 35 -4 19 -18 48 -33 65 -23 28 -30 31 -76 28 -73 -4
-90 -33 -106 -173 -11 -96 -15 -109 -39 -131 -15 -13 -30 -24 -35 -24 -4 0
-37 -19 -73 -41 -72 -46 -93 -43 -78 8 5 15 9 44 10 63 0 19 4 64 8 100 7 62
5 67 -22 99 -22 26 -38 34 -73 38 -39 4 -47 1 -71 -24 -31 -32 -48 -101 -48
-192 0 -32 -4 -61 -9 -66 -5 -6 -12 -41 -15 -80 -11 -137 -11 -137 -83 -183
-36 -23 -70 -39 -75 -36 -11 7 -9 26 16 179 9 54 18 124 21 155 2 30 7 73 11
96 8 54 -16 101 -61 120 -58 24 -94 17 -170 -31 -38 -24 -101 -63 -140 -86
-38 -23 -94 -57 -123 -76 -29 -19 -55 -33 -57 -31 -2 2 0 44 4 93 8 86 10 91
44 120 30 26 115 81 187 121 11 6 28 18 38 27 10 10 22 17 26 17 8 0 62 37 94
64 35 30 30 78 -14 126 -44 48 -70 51 -127 12 -60 -41 -166 -102 -178 -102
-12 0 -12 54 2 143 14 101 23 119 77 150 145 86 150 91 151 152 2 62 -74 119
-130 98 -16 -6 -31 -7 -34 -3 -3 5 -5 50 -4 100 1 60 -3 96 -12 106 -30 37
-135 58 -156 32z m-413 -1205 c25 -30 50 -62 55 -72 27 -43 52 -79 80 -116 49
-62 59 -96 50 -173 -28 -266 -38 -325 -52 -330 -7 -2 -16 5 -20 15 -4 10 -32
50 -62 90 -31 40 -82 108 -113 151 l-58 79 10 94 c5 52 14 141 20 199 6 58 13
111 15 117 7 20 27 6 75 -54z m751 -214 c-2 -41 -7 -81 -11 -89 -4 -8 -11 -57
-15 -109 -4 -52 -9 -100 -12 -108 -6 -16 -134 -107 -183 -129 -8 -4 -23 -14
-33 -22 -33 -29 -125 -75 -136 -68 -13 8 26 365 43 391 7 11 33 30 57 43 24
12 58 33 74 45 17 12 46 34 65 48 47 35 133 80 145 76 6 -2 9 -34 6 -78z
m-1394 -120 c6 -6 40 -17 75 -24 212 -45 250 -56 276 -78 12 -11 22 -25 22
-30 0 -5 17 -30 38 -56 22 -25 55 -70 75 -98 21 -29 53 -75 72 -103 19 -27 35
-55 35 -61 0 -15 -82 -7 -140 14 -25 9 -72 23 -105 31 -33 8 -81 20 -107 26
-48 13 -78 41 -128 125 -13 22 -46 69 -72 105 -26 36 -59 80 -73 99 -14 19
-25 40 -25 48 0 16 42 17 57 2z m318 -599 c72 -17 144 -35 161 -41 17 -5 39
-9 50 -9 10 0 28 -7 38 -15 20 -15 20 -15 0 -30 -10 -8 -44 -29 -74 -46 -30
-17 -64 -39 -75 -49 -11 -9 -36 -26 -55 -36 -19 -10 -45 -27 -57 -37 -23 -21
-72 -20 -148 3 -73 21 -159 41 -231 54 -38 7 -76 16 -82 20 -28 17 -9 42 61
84 39 24 104 63 142 87 46 29 82 44 105 44 19 1 94 -13 165 -29z"/>
<path d="M4330 3593 c-14 -10 -29 -21 -35 -26 -10 -9 -59 -40 -285 -178 -74
-45 -166 -103 -205 -128 -38 -25 -89 -56 -113 -69 -24 -13 -63 -38 -87 -55
-49 -36 -183 -122 -235 -150 -19 -11 -64 -39 -100 -62 -36 -23 -76 -48 -90
-55 -14 -7 -83 -52 -155 -99 -138 -91 -161 -106 -185 -118 -8 -4 -35 -21 -60
-38 -25 -18 -124 -79 -220 -138 -96 -58 -225 -138 -287 -179 -109 -71 -136
-88 -353 -222 -58 -35 -150 -93 -204 -128 -54 -35 -135 -86 -180 -115 -45 -28
-101 -64 -125 -80 -51 -32 -74 -47 -208 -127 -218 -131 -403 -260 -403 -281 0
-32 14 -45 54 -52 29 -4 42 -1 59 15 22 20 95 62 109 62 4 0 13 -19 19 -43 16
-57 52 -87 106 -87 54 0 93 42 93 100 0 21 5 42 10 45 6 3 10 37 10 74 0 77
-9 66 133 155 85 53 87 52 80 -51 -3 -49 -10 -96 -15 -106 -5 -10 -7 -36 -3
-58 8 -46 49 -85 101 -95 31 -6 40 -3 65 22 34 35 45 79 65 264 24 234 18 214
88 260 33 22 68 39 76 38 22 -4 24 -43 5 -90 -9 -23 -17 -64 -17 -92 0 -28 -5
-58 -9 -67 -5 -9 -11 -69 -15 -133 l-6 -116 32 -30 c28 -26 40 -30 87 -30 45
0 64 6 100 30 24 17 48 30 52 30 5 0 15 7 22 16 7 9 22 20 34 25 11 5 27 13
35 19 55 35 181 110 185 110 11 0 4 -133 -9 -164 -8 -20 -35 -48 -67 -70 -91
-62 -160 -106 -169 -106 -4 0 -14 -7 -21 -16 -7 -9 -22 -20 -34 -25 -38 -18
-66 -36 -90 -59 -21 -20 -24 -30 -19 -59 7 -41 68 -111 97 -111 10 0 44 17 75
38 80 54 147 92 162 92 10 0 11 -21 5 -97 -9 -129 -19 -156 -68 -184 -22 -12
-66 -39 -98 -61 -48 -31 -59 -44 -65 -74 -9 -48 7 -78 57 -109 37 -24 44 -25
71 -14 42 17 48 2 45 -103 -2 -99 7 -116 72 -138 80 -26 118 12 128 128 3 34
9 62 13 62 4 0 15 -9 25 -20 14 -15 31 -20 70 -20 43 0 55 4 78 28 51 53 40
81 -106 273 -29 38 -37 56 -32 72 3 12 10 57 14 100 5 43 13 83 18 88 6 6 29
-16 64 -62 83 -110 111 -136 159 -149 38 -10 46 -9 69 8 14 11 31 38 38 62 13
44 13 44 -33 104 -92 124 -164 226 -164 233 0 3 -17 27 -38 52 -55 66 -63 83
-52 117 5 16 13 47 18 68 l7 40 60 -80 c33 -43 69 -92 80 -109 37 -59 138
-180 156 -189 10 -5 19 -13 19 -17 0 -14 60 -40 79 -34 9 3 29 18 44 33 27 28
41 84 58 232 23 199 26 227 35 247 9 21 10 21 34 -15 13 -20 42 -60 62 -88 40
-54 49 -104 27 -146 -6 -11 -12 -46 -14 -78 -1 -32 -5 -63 -9 -68 -3 -5 -8
-38 -11 -73 -3 -35 -9 -81 -12 -102 -4 -30 0 -45 22 -76 41 -60 91 -67 147
-21 33 27 36 35 42 97 3 38 9 91 13 118 l8 50 58 -72 c31 -40 57 -75 57 -79 0
-3 11 -19 25 -36 24 -29 25 -31 18 -162 -3 -73 -3 -145 1 -159 7 -31 51 -57
94 -57 33 0 80 32 91 63 7 17 12 13 45 -32 21 -29 60 -67 87 -85 63 -42 99
-39 129 12 28 47 19 101 -26 163 -40 55 -42 69 -10 69 13 0 35 9 50 21 24 19
27 27 24 72 -3 49 -4 52 -53 80 -50 30 -67 36 -179 59 l-59 13 -84 113 c-47
63 -82 116 -80 119 3 2 36 -5 73 -16 102 -29 183 -35 222 -16 29 15 32 21 32
61 0 25 -5 54 -10 65 -12 21 -88 59 -120 59 -12 0 -31 5 -43 12 -24 13 -84 26
-157 35 -25 3 -54 12 -65 19 -11 8 -31 14 -45 14 -49 0 -70 13 -112 69 -70 91
-83 125 -40 102 12 -6 38 -11 59 -11 21 0 47 -7 57 -15 11 -8 35 -15 53 -15
19 0 46 -6 61 -13 27 -13 85 -27 190 -45 51 -9 53 -8 77 20 28 34 33 89 10
108 -8 7 -15 16 -15 21 0 9 -47 80 -58 89 -4 3 -11 12 -17 21 -32 52 -69 103
-107 150 -54 66 -57 72 -68 110 l-9 31 47 -5 c109 -11 136 -24 178 -83 22 -30
64 -88 94 -128 30 -40 77 -105 104 -144 55 -82 95 -108 152 -99 48 8 61 21 69
68 7 42 9 38 -81 147 -39 47 -80 120 -71 128 3 3 27 -1 54 -9 26 -9 65 -18 86
-22 85 -14 120 -38 188 -131 91 -125 111 -144 151 -144 18 0 48 9 66 20 28 17
32 25 32 60 0 22 -5 49 -12 60 -17 27 -5 34 33 21 18 -6 46 -11 63 -11 18 0
37 -5 44 -12 9 -9 20 -7 47 8 44 23 63 71 45 114 -15 36 -89 80 -135 80 -19 0
-39 8 -50 20 -17 19 -17 21 0 46 24 37 16 111 -15 136 -44 36 -99 24 -208 -42
l-99 -61 -49 12 c-27 6 -59 15 -72 20 -13 5 -34 9 -47 9 -30 0 -95 32 -92 44
2 5 12 14 22 20 10 6 41 26 67 44 26 17 51 32 55 32 4 0 20 12 35 27 42 41 39
88 -10 136 -21 20 -48 37 -60 37 -12 0 -48 -17 -81 -37 -174 -111 -203 -129
-219 -138 -10 -5 -38 -22 -63 -37 -38 -22 -52 -26 -75 -18 -16 4 -56 15 -89
22 -36 9 -61 20 -62 28 -2 9 23 31 60 53 204 125 259 162 294 199 47 48 49 62
14 106 -30 39 -89 64 -196 83 -109 21 -132 27 -162 42 -18 9 -47 17 -65 17
-19 0 -43 6 -54 14 -11 8 -30 16 -43 18 -42 6 -33 22 37 65 68 44 114 53 152
33 10 -5 48 -14 83 -19 36 -5 80 -16 99 -24 37 -16 205 -60 228 -59 33 1 71
23 82 47 12 26 0 82 -25 113 -18 22 -101 58 -151 65 -80 11 -126 28 -126 47 0
11 23 30 61 51 34 19 76 43 95 53 27 16 38 17 56 9 13 -7 49 -14 82 -17 32 -4
66 -11 76 -16 10 -6 41 -10 68 -10 44 0 54 4 76 31 22 26 25 37 20 68 -7 41
-27 67 -66 87 -16 8 -28 18 -28 22 0 4 32 27 70 51 38 25 72 53 76 63 7 23
-31 78 -54 78 -10 0 -29 -8 -42 -17z m-1078 -877 c44 -18 99 -32 317 -77 24
-5 46 -11 49 -13 8 -9 -9 -44 -26 -50 -9 -3 -30 -15 -47 -26 -16 -11 -39 -24
-50 -29 -12 -5 -27 -16 -34 -25 -7 -9 -17 -16 -22 -16 -5 0 -31 -13 -57 -30
-38 -23 -61 -30 -98 -30 -48 1 -69 5 -189 34 -33 8 -90 22 -127 30 -61 14
-108 31 -108 41 0 2 17 14 38 26 56 35 203 128 242 155 40 27 66 30 112 10z
m-252 -439 c19 -8 82 -26 139 -38 l104 -24 54 -66 c29 -36 53 -70 53 -74 0 -4
22 -35 48 -69 84 -108 106 -146 94 -158 -9 -9 -22 -8 -52 0 -22 7 -57 16 -77
21 -21 5 -65 16 -98 25 -33 8 -80 18 -104 23 -42 8 -49 14 -125 115 -142 190
-173 233 -180 254 -6 20 -4 20 51 13 31 -4 73 -14 93 -22z m-556 -79 c-6 -60
-22 -219 -30 -291 -5 -43 -10 -51 -47 -74 -39 -24 -58 -36 -112 -73 -200 -138
-214 -140 -203 -29 13 129 40 298 51 316 15 25 303 203 328 203 15 0 17 -7 13
-52z m269 -41 c15 -23 63 -91 107 -152 102 -141 113 -161 101 -183 -5 -9 -12
-74 -16 -145 -4 -70 -11 -130 -16 -133 -5 -3 -9 -28 -9 -55 0 -40 -3 -48 -14
-42 -21 12 -143 167 -198 252 -50 76 -55 93 -47 171 4 41 13 127 19 190 6 63
13 121 15 128 8 23 30 11 58 -31z"/>
</g>
</svg>