<?xml version="1.0" standalone="no"?>
<!DOCTYPE svg PUBLIC "-//W3C//DTD SVG 20010904//EN"
 "http://www.w3.org/TR/2001/REC-SVG-20010904/DTD/svg10.dtd">
<svg version="1.0" xmlns="http://www.w3.org/2000/svg"
 width="512.000000pt" height="512.000000pt" viewBox="0 0 512.000000 512.000000"
 preserveAspectRatio="xMidYMid meet">
<metadata>
Created by potrace 1.14, written by Peter Selinger 2001-2017
</metadata>
<g transform="translate(0.000000,512.000000) scale(0.100000,-0.100000)"
fill="#000000" stroke="none">
<path d="M2755 4811 c-38 -8 -68 -65 -72 -135 -3 -60 -8 -65 -34 -37 -12 12
-28 20 -35 17 -8 -3 -23 -1 -33 5 -38 24 -109 -41 -105 -96 1 -11 2 -28 3 -37
1 -9 12 -28 26 -42 14 -14 25 -32 25 -41 0 -8 7 -15 15 -15 8 0 15 -6 15 -13
0 -8 9 -22 20 -32 12 -11 18 -25 15 -34 -3 -8 -3 -12 1 -8 14 14 44 -35 38
-62 -4 -14 -7 -41 -7 -58 0 -18 -2 -31 -6 -29 -3 2 -6 -18 -7 -45 -1 -58 -7
-67 -29 -45 -9 9 -14 16 -12 16 3 0 -8 15 -23 33 -16 17 -29 35 -29 40 0 4
-12 20 -26 35 -14 15 -25 30 -25 33 0 4 -13 12 -30 19 -16 7 -30 16 -30 21 0
4 -8 8 -17 7 -10 0 -28 2 -40 5 -12 3 -27 0 -33 -9 -7 -7 -16 -11 -21 -8 -5 3
-8 0 -7 -8 2 -7 -2 -12 -9 -11 -7 2 -10 -4 -7 -12 3 -8 1 -28 -4 -44 -9 -25
-6 -35 24 -80 19 -28 38 -51 43 -51 9 0 24 -38 22 -53 -1 -5 3 -6 8 -3 5 4 12
-2 15 -12 4 -10 14 -27 24 -38 10 -10 36 -46 59 -79 23 -33 50 -70 61 -81 12
-12 18 -25 15 -28 -4 -3 0 -6 7 -6 7 0 10 -3 7 -7 -4 -3 -1 -13 6 -21 10 -13
9 -14 -3 -7 -13 7 -13 6 -2 -7 9 -11 10 -18 2 -23 -5 -3 -10 -26 -10 -51 0
-24 -3 -44 -8 -44 -10 0 -37 43 -34 53 1 5 -2 6 -8 2 -5 -3 -10 -2 -10 3 0 4
-8 17 -18 28 -10 10 -38 48 -62 84 -25 36 -53 74 -62 84 -10 11 -18 26 -18 33
0 7 -7 13 -16 13 -8 0 -12 5 -9 10 3 6 -1 13 -9 16 -9 3 -14 9 -11 13 2 4 -21
24 -52 44 -55 37 -96 47 -108 27 -4 -6 -11 -8 -16 -5 -5 4 -9 0 -9 -8 0 -8 -7
-18 -16 -21 -8 -3 -12 -11 -9 -16 4 -6 2 -17 -4 -23 -5 -7 -11 -31 -12 -52 -1
-22 -6 -45 -11 -52 -5 -6 -9 -35 -9 -65 0 -29 -4 -78 -9 -108 -5 -30 -12 -81
-15 -112 -5 -44 -10 -56 -21 -51 -7 3 -11 9 -8 14 3 5 1 9 -3 9 -5 0 -22 21
-39 47 -16 25 -36 53 -44 62 -16 16 -19 101 -6 156 4 17 9 53 11 81 2 28 7 64
10 80 4 16 9 65 11 109 4 77 3 81 -26 114 -23 26 -39 35 -70 37 -25 2 -45 -3
-54 -12 -8 -8 -19 -14 -24 -14 -18 0 -35 -52 -36 -110 -1 -33 -4 -60 -7 -60
-6 0 -9 -21 -9 -63 0 -26 0 -27 -20 -10 -11 10 -20 21 -20 25 0 5 -8 17 -17
27 -23 25 -53 68 -55 78 0 5 -8 13 -18 20 -26 18 -43 68 -36 105 3 18 7 42 9
53 1 11 7 23 12 27 7 5 6 8 -1 8 -11 0 -13 84 -2 95 3 4 -3 24 -14 45 -26 48
-80 70 -127 50 -17 -7 -31 -17 -31 -22 0 -5 -5 -6 -10 -3 -6 3 -10 -3 -10 -14
0 -11 -4 -22 -8 -25 -10 -6 -44 30 -63 66 -15 29 -45 59 -52 51 -3 -3 -12 4
-19 16 -10 16 -23 21 -58 21 -40 0 -47 -4 -68 -36 -18 -28 -22 -43 -17 -77 7
-47 22 -78 41 -90 8 -4 14 -15 14 -22 0 -8 5 -15 10 -15 6 0 10 -10 10 -21 0
-18 -2 -19 -15 -9 -11 9 -15 9 -15 1 0 -7 -4 -10 -9 -7 -5 3 -21 -7 -37 -22
-29 -27 -32 -47 -19 -109 7 -28 97 -78 160 -88 28 -4 55 -11 60 -15 6 -5 26
-10 45 -12 26 -2 38 -10 48 -30 7 -16 17 -28 21 -28 5 0 14 -13 21 -30 7 -16
17 -30 23 -30 6 0 8 -3 4 -6 -3 -4 1 -13 9 -21 8 -8 12 -19 8 -24 -3 -5 0 -8
6 -7 7 2 17 -6 23 -17 7 -11 17 -24 22 -28 9 -8 -4 -6 -65 8 -8 2 -30 8 -48
14 -18 5 -35 10 -37 10 -3 1 -6 1 -7 2 -2 0 -17 2 -33 3 -17 1 -36 5 -42 9
-13 8 -89 -28 -96 -46 -6 -16 -2 -65 7 -98 6 -22 56 -54 79 -50 4 0 7 -3 7 -8
0 -5 12 -9 28 -9 15 1 42 -6 59 -16 18 -9 46 -16 63 -16 16 0 30 -3 30 -7 0
-5 26 -9 57 -11 32 -2 61 -8 64 -14 8 -12 24 -17 76 -22 21 -2 42 -14 62 -37
17 -19 37 -41 45 -49 7 -8 17 -25 20 -37 4 -13 12 -23 17 -23 5 0 9 -4 9 -9 0
-6 -10 -7 -22 -5 -13 3 -37 7 -54 8 -17 1 -39 8 -48 15 -8 7 -33 15 -53 17
-40 5 -143 30 -181 45 -13 5 -41 9 -62 9 -22 0 -40 4 -40 10 0 15 -50 -7 -72
-32 -25 -29 -24 -99 2 -123 11 -10 20 -22 20 -27 0 -4 8 -16 18 -26 9 -10 24
-29 32 -42 8 -12 20 -28 26 -34 6 -6 17 -22 23 -35 7 -13 24 -35 36 -50 13
-14 24 -30 24 -34 0 -5 8 -16 19 -25 21 -19 72 -103 72 -119 0 -9 -56 -4 -132
12 -27 5 -98 62 -98 78 0 5 -11 23 -25 41 -14 18 -22 36 -17 41 4 5 2 5 -5 2
-7 -4 -20 7 -33 28 -12 20 -27 41 -33 48 -7 6 -25 32 -42 57 -34 51 -53 75
-77 101 -9 9 -16 19 -15 21 1 2 0 2 -2 1 -2 -1 -13 3 -25 9 -48 26 -131 4
-133 -35 -1 -12 -6 -23 -12 -25 -6 -2 -4 -17 5 -38 13 -30 26 -50 59 -88 32
-36 95 -127 95 -136 0 -12 -60 -4 -70 9 -3 3 -18 6 -35 5 -16 0 -34 3 -40 7
-14 9 -89 33 -97 31 -10 -2 -78 79 -78 94 0 8 -9 18 -20 24 -11 6 -19 14 -18
18 5 15 -58 90 -82 99 -15 5 -44 5 -72 0 -39 -8 -49 -15 -61 -41 -19 -40 -16
-72 9 -92 10 -8 14 -13 7 -10 -6 4 -15 2 -18 -4 -5 -8 -11 -8 -20 0 -7 6 -19
8 -28 4 -8 -3 -18 -1 -22 5 -4 8 -12 8 -25 1 -12 -7 -21 -7 -25 0 -3 5 -21 9
-40 7 -18 -1 -31 -4 -29 -6 2 -2 -4 -10 -13 -16 -10 -7 -22 -28 -28 -46 -9
-27 -9 -39 4 -61 9 -15 20 -28 24 -28 5 0 5 -4 2 -10 -3 -6 1 -7 9 -4 10 4 18
-1 22 -10 3 -9 11 -15 18 -14 6 1 21 -3 34 -10 12 -7 26 -10 31 -7 5 3 21 0
35 -6 27 -13 34 -37 15 -56 -31 -31 -5 -143 33 -143 9 0 19 -4 22 -9 3 -5 19
-7 35 -6 26 2 56 17 146 72 11 7 27 15 35 19 8 4 18 11 21 16 8 12 59 20 59
10 0 -5 15 -8 33 -7 17 0 35 -4 38 -9 4 -4 22 -9 40 -10 54 -4 109 -28 109
-48 0 -10 -6 -18 -13 -18 -8 0 -39 -18 -70 -39 -30 -22 -58 -37 -61 -33 -3 3
-6 0 -6 -6 0 -6 -9 -14 -20 -17 -11 -4 -18 -10 -15 -15 3 -5 0 -12 -6 -15 -14
-9 -8 -76 8 -93 7 -7 19 -22 26 -33 19 -27 85 -31 111 -7 11 10 26 18 33 18 7
0 13 4 13 8 0 5 18 17 40 27 22 10 40 22 40 27 0 4 9 8 20 8 11 0 20 4 20 9 0
5 9 13 20 16 12 4 30 16 40 28 11 11 20 17 20 11 0 -5 4 -5 8 1 14 20 87 62
102 59 85 -16 137 -27 156 -35 28 -10 34 -42 7 -32 -10 3 -15 2 -10 -2 6 -8
-68 -59 -86 -60 -4 0 -11 -5 -15 -11 -4 -6 -23 -19 -42 -29 -19 -9 -50 -28
-67 -42 -18 -13 -33 -21 -33 -18 0 4 -7 0 -15 -7 -34 -30 -45 -38 -45 -32 0
14 -36 -30 -53 -64 -16 -32 -14 -62 4 -62 5 0 9 -5 9 -11 0 -24 55 -59 94 -59
13 0 31 -6 38 -12 16 -15 30 -19 78 -23 19 -2 50 -8 69 -14 18 -5 36 -9 40 -9
3 1 16 -3 27 -10 12 -6 41 -14 65 -18 24 -4 53 -12 64 -17 11 -6 26 -12 33
-13 41 -7 46 -14 21 -32 -13 -9 -25 -16 -26 -14 -2 1 -12 -7 -23 -18 -11 -11
-27 -20 -35 -20 -8 0 -15 -4 -15 -10 0 -8 -21 -8 -122 2 -10 1 -18 5 -18 8 0
7 -9 9 -60 14 -19 2 -44 6 -55 10 -47 18 -72 25 -110 31 -35 5 -78 17 -125 33
-8 3 -19 4 -25 3 -5 -2 -17 -5 -25 -6 -8 -2 -17 -4 -20 -5 -3 -1 -8 -2 -11 -2
-4 1 -10 -10 -13 -23 -4 -14 -11 -25 -16 -25 -18 0 7 -71 39 -107 10 -13 24
-23 30 -23 7 0 23 -8 37 -17 23 -15 69 -27 145 -37 15 -2 36 -10 47 -18 21
-14 21 -14 -5 -34 -14 -10 -30 -20 -34 -20 -5 -1 -14 -2 -20 -3 -5 0 -7 -5 -4
-11 3 -5 -3 -10 -14 -10 -12 0 -21 -4 -21 -8 0 -4 -20 -18 -44 -29 -31 -15
-47 -18 -54 -11 -6 6 -28 12 -49 13 -21 1 -64 9 -95 17 -55 15 -108 16 -148 3
-35 -11 -48 -97 -20 -130 7 -8 9 -15 4 -15 -5 0 10 -10 34 -22 23 -12 42 -28
42 -36 0 -9 -6 -12 -16 -8 -8 3 -13 2 -10 -3 6 -9 -63 -47 -77 -43 -5 1 -6 -2
-2 -8 3 -5 -1 -13 -10 -16 -29 -12 -37 -41 -20 -74 9 -17 22 -33 30 -37 20 -7
107 36 98 49 -3 6 -1 8 4 5 6 -4 21 2 33 13 13 11 27 20 32 20 5 0 16 7 25 15
8 8 20 12 26 8 7 -3 9 -3 5 2 -9 9 45 45 68 45 8 0 13 4 10 9 -3 5 13 19 37
30 49 26 63 34 141 85 33 21 67 41 75 44 9 3 21 10 26 14 6 4 24 19 42 33 18
15 41 27 52 28 11 0 18 5 15 9 -3 4 13 16 36 28 22 11 40 26 40 32 0 6 3 8 6
5 4 -4 20 3 35 14 16 11 29 17 29 13 0 -4 9 2 20 14 12 12 27 22 36 22 8 0 17
7 20 15 4 8 10 12 15 9 5 -3 12 2 15 10 3 9 12 16 20 16 8 0 14 5 14 10 0 6 3
9 8 8 4 -1 34 15 66 36 33 21 70 43 83 49 13 5 23 14 23 19 0 4 6 8 14 8 8 0
21 6 29 14 7 8 38 27 68 43 30 15 59 33 66 38 7 6 19 16 27 22 8 7 32 22 54
33 21 11 48 29 60 40 12 12 22 18 22 15 0 -5 80 44 90 56 3 3 25 16 50 30 25
13 49 30 53 37 5 7 12 10 18 7 5 -4 9 -2 9 3 0 4 20 18 44 30 24 12 49 29 56
37 7 8 19 15 26 15 8 0 14 4 14 9 0 5 16 15 35 21 19 6 35 15 35 18 0 9 62 46
73 44 4 -1 7 2 7 8 0 5 5 10 10 10 6 0 20 9 32 20 11 10 37 27 57 36 20 9 39
22 43 28 4 6 12 11 18 11 6 0 14 6 19 13 5 8 10 13 12 12 7 -3 69 35 69 43 0
4 4 7 10 7 9 0 123 69 147 90 7 5 16 10 21 10 4 0 19 10 32 23 14 12 26 20 28
18 2 -2 51 26 108 63 58 36 109 66 114 66 4 0 10 4 12 8 4 12 163 112 176 112
7 0 12 4 12 8 0 5 12 15 28 23 32 16 81 49 100 67 8 7 18 10 23 7 5 -4 9 -2 9
3 0 5 39 32 88 60 48 28 92 54 97 59 21 17 95 63 101 63 3 0 23 13 43 28 20
16 43 32 51 36 40 19 113 68 127 86 16 21 -9 66 -42 74 -29 7 -75 -2 -75 -16
0 -5 -4 -7 -9 -4 -5 3 -12 -1 -15 -10 -3 -8 -10 -13 -15 -10 -5 3 -12 -1 -15
-10 -3 -8 -10 -13 -15 -10 -5 4 -11 2 -13 -3 -5 -16 -30 -17 -33 -1 -6 30 -24
66 -43 86 -12 12 -19 23 -17 25 2 2 -18 3 -45 3 -77 -2 -110 -35 -110 -111 0
-18 -3 -33 -7 -33 -5 0 -9 -30 -10 -66 -1 -52 -5 -70 -22 -85 -11 -10 -25 -19
-31 -19 -5 0 -10 -4 -10 -10 0 -5 -5 -10 -11 -10 -6 0 -37 -18 -69 -39 -39
-27 -61 -36 -71 -30 -12 7 -11 13 3 37 10 16 16 31 13 33 -7 8 -14 59 -7 59 4
0 8 10 9 23 0 12 3 42 6 67 2 24 0 49 -5 55 -47 57 -58 64 -107 71 -34 4 -47
-3 -74 -44 -26 -39 -40 -105 -40 -187 1 -27 -3 -55 -8 -61 -5 -7 -10 -38 -11
-70 -1 -33 -7 -70 -13 -84 -7 -14 -11 -34 -9 -46 3 -16 -6 -26 -34 -40 -20
-10 -45 -27 -56 -36 -11 -10 -27 -18 -36 -18 -17 0 -18 29 -1 120 10 51 14 85
27 215 3 28 7 71 10 96 7 55 -12 91 -59 116 -62 32 -88 26 -194 -39 -54 -34
-101 -66 -105 -72 -5 -7 -8 -7 -8 -1 0 6 -3 6 -8 -1 -8 -11 -160 -104 -172
-104 -3 0 -7 7 -7 15 0 8 3 15 7 15 3 0 5 24 5 53 -2 71 17 114 60 134 19 9
35 20 35 25 0 4 7 8 15 8 8 0 15 5 15 10 0 6 4 10 9 10 6 0 30 14 54 30 25 17
50 30 56 30 6 0 11 5 11 11 0 5 4 8 9 5 5 -3 12 1 15 10 3 8 10 13 14 10 5 -3
14 4 22 14 8 10 17 17 22 14 4 -3 8 0 8 5 0 6 6 11 14 11 8 0 23 13 32 29 10
17 22 27 28 24 6 -3 5 0 -1 8 -7 7 -13 25 -13 41 0 17 -7 31 -20 38 -11 6 -20
17 -20 25 0 8 -3 14 -7 13 -5 0 -15 1 -23 5 -8 3 -29 7 -46 9 -23 3 -31 1 -27
-9 3 -7 0 -13 -7 -13 -7 0 -36 -16 -64 -37 -28 -20 -56 -36 -63 -36 -7 0 -13
-4 -13 -9 0 -4 -6 -8 -14 -8 -8 0 -16 -5 -18 -12 -2 -6 -10 -8 -16 -4 -8 5
-11 25 -8 59 10 111 19 167 28 167 5 0 7 4 4 8 -2 4 -2 13 2 19 9 13 74 48 85
45 4 -1 7 2 7 7 0 5 20 21 45 35 49 29 61 46 66 91 7 67 -56 121 -131 112
l-40 -4 2 97 c0 53 -2 102 -6 108 -6 9 -96 55 -100 51 0 -1 -14 -4 -31 -8z
m-505 -1161 c0 -5 -5 -10 -11 -10 -5 0 -7 5 -4 10 3 6 8 10 11 10 2 0 4 -4 4
-10z m44 -48 c6 -8 23 -27 37 -43 15 -15 24 -31 21 -34 -3 -3 1 -5 8 -5 7 0
10 -3 7 -7 -4 -3 2 -13 13 -20 11 -8 18 -19 15 -24 -4 -5 -1 -9 4 -9 6 0 11
-5 11 -11 0 -6 6 -16 13 -23 37 -39 56 -67 66 -98 11 -34 8 -148 -5 -169 -4
-6 -7 -43 -8 -82 -1 -39 -6 -72 -12 -74 -6 -2 -9 -23 -7 -46 3 -37 0 -43 -17
-44 -13 -1 -20 4 -20 15 0 10 -9 23 -20 30 -12 7 -19 16 -16 21 3 4 -4 13 -14
21 -10 8 -17 17 -14 22 3 4 1 8 -5 8 -5 0 -20 17 -32 38 -22 35 -31 47 -54 75
-32 37 -59 84 -57 95 2 8 -1 11 -8 7 -8 -5 -10 5 -5 39 4 25 8 66 8 91 0 25 4
45 9 45 4 0 7 3 7 8 -1 4 -1 9 0 12 1 3 4 34 6 70 3 36 6 76 7 90 2 34 30 54
42 32 5 -9 14 -23 20 -30z m767 -163 c6 -12 7 -19 2 -16 -6 4 -9 -16 -8 -46 1
-29 -3 -63 -8 -77 -5 -14 -11 -47 -12 -75 -2 -27 -4 -50 -5 -50 -1 0 -3 -12
-4 -28 -2 -15 -6 -30 -9 -34 -4 -3 -2 -12 4 -20 9 -9 8 -13 0 -13 -6 0 -11 -6
-11 -13 0 -8 -12 -20 -27 -28 -31 -16 -46 -26 -71 -50 -9 -9 -27 -20 -39 -23
-13 -4 -23 -11 -23 -16 0 -4 -11 -11 -25 -14 -14 -4 -25 -11 -25 -16 0 -6 -6
-10 -13 -10 -7 0 -23 -9 -36 -21 -12 -12 -33 -22 -46 -23 -13 0 -21 -4 -18 -8
2 -5 -1 -8 -6 -8 -16 0 -14 135 2 168 7 15 12 51 11 80 -1 29 2 55 7 57 4 3 6
17 3 31 -3 14 -1 23 4 20 5 -3 7 5 5 18 -4 18 3 28 34 46 21 13 44 25 51 26 8
1 19 9 25 17 13 15 78 61 90 63 4 1 12 2 19 3 6 0 8 4 5 8 -9 8 24 32 46 33 9
0 17 5 17 12 0 6 3 9 6 5 4 -3 13 0 21 8 19 19 20 19 34 -6z m-1411 -180 c0 8
7 7 22 -3 12 -9 35 -16 50 -16 16 0 28 -3 28 -7 0 -5 12 -9 28 -9 15 -1 45 -7
67 -13 22 -6 51 -14 65 -17 14 -3 34 -8 45 -11 20 -7 29 -9 43 -12 4 -1 18
-18 32 -39 31 -47 40 -57 68 -87 13 -14 19 -25 15 -25 -4 -1 1 -9 12 -18 11
-10 21 -23 23 -31 1 -7 12 -23 25 -36 36 -39 47 -54 47 -63 0 -5 9 -19 20 -32
11 -13 20 -26 20 -30 0 -12 -72 -1 -170 26 -52 14 -119 31 -147 36 -29 6 -53
14 -53 19 0 5 -3 8 -7 8 -19 -3 -33 2 -33 11 0 5 -10 21 -22 36 -13 14 -22 28
-20 31 2 2 -5 12 -15 21 -10 9 -24 29 -32 45 -8 15 -18 27 -23 27 -5 0 -7 4
-4 9 3 5 -1 11 -9 15 -8 3 -15 13 -15 21 0 9 -4 13 -10 10 -5 -3 -10 1 -10 9
0 8 -13 30 -30 48 -16 18 -30 41 -30 51 0 10 -4 15 -10 12 -5 -3 -10 -2 -10 3
0 16 13 22 27 11 10 -9 13 -8 13 0z m276 -589 c74 -19 115 -29 139 -34 6 -1
16 -5 23 -9 6 -5 16 -5 22 -2 5 3 20 0 32 -6 13 -7 32 -13 43 -15 36 -4 65
-16 59 -25 -3 -5 -10 -6 -16 -3 -6 4 -8 2 -5 -3 9 -14 -40 -46 -55 -37 -6 4
-8 3 -5 -3 3 -5 -7 -17 -24 -27 -16 -9 -29 -14 -29 -10 0 4 -10 -4 -22 -18
-13 -14 -33 -29 -45 -33 -13 -3 -23 -11 -23 -16 0 -5 -5 -9 -11 -9 -6 0 -21
-8 -34 -18 -29 -23 -77 -21 -180 8 -44 13 -87 24 -95 25 -8 1 -22 4 -30 7 -8
4 -31 9 -50 12 -73 11 -95 18 -110 31 -16 17 -11 24 40 52 72 39 110 65 110
75 0 5 4 7 9 3 5 -3 12 -1 16 5 4 6 11 8 16 4 5 -3 8 0 7 8 -2 7 3 12 10 11 6
-2 12 1 12 6 0 5 11 12 25 15 14 4 25 11 25 16 0 16 62 12 146 -10z"/>
<path d="M4335 3600 c-11 -4 -30 -18 -42 -29 -13 -12 -23 -19 -23 -15 0 4 -9
-1 -20 -11 -12 -11 -29 -20 -38 -21 -9 -2 -18 -8 -20 -13 -2 -6 -29 -25 -60
-43 -31 -17 -59 -34 -62 -37 -6 -7 -29 -21 -102 -63 -32 -18 -58 -36 -58 -40
0 -5 -4 -8 -10 -8 -5 0 -36 -17 -67 -37 -32 -21 -61 -38 -65 -38 -4 0 -14 -9
-22 -20 -9 -11 -16 -16 -16 -11 0 5 -8 2 -17 -6 -10 -9 -45 -30 -77 -47 -32
-17 -55 -31 -50 -31 5 -1 -7 -10 -26 -21 -19 -11 -48 -28 -65 -39 -16 -11 -42
-26 -57 -35 -16 -9 -28 -20 -28 -26 0 -6 -7 -9 -15 -5 -8 3 -15 1 -15 -5 0 -5
-10 -14 -22 -20 -13 -5 -32 -15 -43 -22 -65 -39 -102 -63 -113 -74 -7 -7 -24
-16 -38 -19 -13 -3 -24 -10 -24 -14 0 -4 -13 -13 -30 -20 -16 -7 -30 -17 -30
-22 0 -5 -4 -7 -9 -4 -5 3 -14 -1 -21 -9 -7 -8 -17 -12 -23 -8 -6 3 -7 1 -3
-5 4 -7 -4 -17 -21 -24 -15 -7 -32 -18 -36 -25 -5 -8 -12 -11 -16 -8 -5 2 -14
-2 -21 -10 -7 -8 -17 -15 -22 -15 -6 0 -24 -10 -41 -22 -17 -13 -39 -27 -48
-33 -9 -5 -49 -31 -88 -57 -39 -27 -76 -48 -81 -48 -6 0 -10 -5 -10 -11 0 -5
-4 -7 -10 -4 -5 3 -10 1 -10 -5 0 -6 -4 -9 -9 -6 -5 4 -11 2 -13 -3 -1 -5 -50
-38 -108 -73 -58 -36 -144 -90 -192 -121 -48 -31 -92 -57 -97 -57 -5 0 -12 -7
-15 -16 -3 -8 -10 -12 -16 -9 -5 3 -10 1 -10 -5 0 -6 -4 -8 -10 -5 -5 3 -10 2
-10 -3 0 -5 -16 -17 -35 -26 -19 -9 -35 -21 -35 -26 0 -4 -14 -11 -30 -15 -17
-4 -28 -11 -25 -16 3 -4 -6 -11 -20 -15 -14 -3 -25 -9 -25 -13 0 -3 -21 -18
-47 -31 -27 -14 -50 -28 -53 -31 -12 -13 -158 -99 -168 -99 -7 0 -12 -5 -12
-10 0 -6 -16 -18 -35 -27 -19 -9 -35 -20 -35 -25 0 -4 -6 -8 -12 -8 -7 -1 -35
-16 -63 -35 -27 -18 -53 -31 -57 -29 -5 3 -7 0 -6 -8 2 -7 -3 -12 -9 -10 -7 1
-13 -2 -13 -8 0 -5 -6 -10 -14 -10 -11 0 -56 -30 -103 -70 -7 -6 -15 -9 -17
-8 -3 2 -14 -4 -24 -12 -18 -15 -49 -33 -112 -67 -19 -10 -39 -24 -43 -31 -5
-7 -12 -10 -18 -7 -5 4 -9 2 -9 -3 0 -4 -19 -19 -42 -32 -24 -12 -64 -38 -91
-56 -26 -19 -50 -34 -53 -34 -3 0 -23 -13 -43 -28 -35 -28 -70 -46 -82 -44 -3
0 -6 -4 -6 -11 0 -7 -3 -24 -6 -40 -3 -15 -2 -25 3 -22 4 3 10 -2 14 -10 9
-26 82 -19 114 10 15 14 32 25 39 25 7 0 13 5 13 12 0 6 3 8 7 5 3 -4 12 -2
20 5 7 6 16 9 19 6 6 -7 16 -47 18 -75 0 -11 4 -19 7 -17 3 2 15 -5 26 -16 12
-10 39 -21 61 -23 34 -3 45 1 71 25 17 16 32 40 32 54 3 49 5 59 13 73 5 7 8
42 8 77 0 47 4 64 13 64 7 0 15 4 17 8 4 11 115 82 127 82 5 0 11 6 14 14 8
19 41 13 45 -7 2 -10 -1 -17 -7 -17 -6 0 -8 -6 -5 -14 3 -8 1 -17 -5 -20 -7
-5 -7 -13 1 -26 9 -14 9 -22 -1 -33 -8 -10 -9 -17 -2 -22 8 -4 7 -15 -2 -33
-28 -56 14 -144 75 -158 47 -11 91 -8 83 6 -3 6 0 13 8 16 17 6 33 42 42 97 3
21 9 36 13 33 4 -2 7 28 8 67 1 67 6 129 20 237 5 38 11 49 42 70 20 13 41 25
45 25 4 0 11 5 15 11 11 17 39 23 51 11 15 -15 14 -30 -1 -21 -10 5 -10 4 -2
-5 9 -10 8 -20 -2 -40 -7 -15 -16 -56 -19 -92 -3 -35 -9 -90 -14 -121 -5 -32
-7 -67 -4 -78 3 -11 1 -20 -3 -20 -5 0 -7 -27 -6 -59 3 -51 8 -63 33 -86 41
-36 119 -41 169 -11 19 11 37 24 38 28 2 4 10 8 18 8 8 0 22 8 32 18 22 21 48
38 82 54 14 7 27 15 30 18 13 14 60 40 60 33 0 -5 4 -3 8 3 4 5 23 20 43 32
l35 21 -2 -39 c-1 -21 -5 -44 -9 -51 -5 -8 -4 -10 4 -5 8 6 10 1 6 -16 -6 -25
-13 -57 -14 -70 -1 -4 -43 -35 -93 -68 -51 -33 -99 -64 -105 -70 -7 -6 -13 -8
-13 -5 0 3 -6 1 -12 -5 -49 -41 -62 -49 -69 -44 -5 3 -12 -2 -15 -10 -3 -9
-12 -16 -20 -16 -32 0 -99 -93 -73 -102 5 -2 10 -15 11 -30 1 -16 5 -28 9 -28
3 0 19 -11 35 -25 33 -28 75 -33 94 -10 7 8 19 15 26 15 8 0 14 5 14 10 0 6 6
10 14 10 8 0 17 7 20 16 4 9 13 14 22 10 8 -3 12 -2 9 4 -3 6 1 10 9 10 9 0
16 3 16 8 0 8 48 32 63 32 6 0 7 -28 2 -72 -4 -40 -8 -86 -7 -102 0 -36 -28
-87 -54 -101 -72 -37 -164 -102 -168 -119 -24 -89 58 -177 136 -147 25 9 28 8
34 -15 4 -14 4 -51 0 -82 -8 -79 3 -113 45 -134 98 -49 150 -4 163 137 4 50 3
48 20 33 8 -7 12 -16 10 -19 -6 -10 27 -16 78 -14 37 1 53 7 73 29 14 15 25
35 25 45 0 37 -13 80 -29 98 -9 10 -29 38 -46 63 -16 25 -36 49 -43 53 -7 5
-10 12 -7 18 4 5 2 9 -3 9 -19 0 -44 50 -33 64 6 7 8 16 4 19 -3 4 -2 12 4 19
5 7 8 34 8 61 -1 26 2 47 6 47 4 0 6 7 5 16 -2 25 24 29 31 5 3 -12 10 -21 15
-21 5 0 6 -4 3 -10 -3 -5 1 -10 10 -10 9 0 14 -4 11 -9 -3 -4 6 -19 20 -32 13
-12 22 -29 19 -37 -2 -7 -1 -10 4 -7 5 3 16 -3 23 -13 18 -27 87 -59 123 -58
17 1 40 11 53 23 12 13 20 23 18 23 -3 0 0 15 5 34 10 37 4 53 -56 133 -16 22
-37 51 -45 63 -14 20 -36 49 -60 77 -5 7 -10 17 -10 22 0 6 -6 14 -12 18 -13
8 -33 36 -45 63 -4 8 -15 22 -25 31 -10 9 -18 21 -18 26 0 6 -7 16 -15 23 -11
10 -12 17 -3 33 10 19 18 57 21 95 0 13 17 17 17 4 0 -5 9 -18 21 -30 11 -12
17 -27 13 -34 -4 -6 -3 -8 3 -5 6 4 19 -5 29 -19 11 -15 24 -32 31 -39 7 -7
10 -15 7 -17 -2 -3 5 -13 16 -23 11 -10 20 -24 20 -32 0 -7 4 -13 9 -13 11 0
66 -82 63 -93 -1 -5 1 -6 6 -3 4 2 17 -9 27 -25 11 -16 23 -29 27 -29 4 0 24
-11 45 -26 26 -18 45 -23 62 -19 26 7 84 63 77 74 -2 3 0 26 5 51 5 25 14 86
20 135 6 50 14 119 18 155 4 36 12 76 17 89 l10 23 17 -26 c9 -14 17 -27 17
-29 0 -3 16 -21 35 -42 19 -21 32 -42 30 -46 -3 -4 0 -9 6 -11 17 -6 20 -66 5
-103 -8 -18 -12 -36 -9 -39 3 -3 1 -19 -5 -35 -7 -19 -7 -33 -1 -36 5 -4 5
-14 -2 -26 -11 -21 -24 -133 -24 -211 0 -36 5 -51 20 -62 11 -9 16 -16 10 -16
-18 0 32 -29 60 -34 33 -6 60 7 96 45 21 23 26 36 23 69 -2 22 3 59 9 83 7 23
12 52 11 65 -1 12 1 22 3 22 8 0 34 -30 26 -30 -4 0 -3 -4 3 -8 13 -8 84 -99
84 -108 0 -2 11 -16 24 -29 20 -20 24 -32 21 -72 -2 -26 -4 -50 -5 -53 -1 -3
-3 -48 -4 -100 -1 -101 4 -114 53 -140 41 -21 88 -15 120 16 17 15 28 31 25
36 -3 4 0 8 6 8 6 0 14 -8 17 -17 4 -10 12 -23 17 -29 6 -6 24 -28 40 -48 15
-20 35 -36 43 -36 8 0 21 -7 30 -15 28 -29 113 3 113 42 0 7 4 13 9 13 9 0 -8
102 -19 110 -15 12 -59 84 -54 91 2 4 13 6 24 4 11 -2 20 0 20 6 0 5 6 9 13 9
19 0 40 44 42 88 1 28 -5 42 -24 59 -24 21 -30 24 -46 23 -3 -1 -13 6 -21 15
-9 8 -23 15 -32 16 -9 0 -24 2 -32 4 -8 2 -42 10 -75 17 -33 7 -69 21 -79 30
-11 10 -16 18 -10 18 5 0 4 4 -1 8 -6 4 -22 23 -35 42 -14 19 -32 44 -42 54
-9 10 -15 23 -12 28 3 5 0 7 -8 6 -7 -2 -12 3 -10 10 1 6 -2 12 -8 12 -5 0
-14 9 -20 19 -9 18 -7 19 17 15 15 -3 34 -11 42 -17 8 -7 16 -11 18 -9 1 1 4
2 6 1 12 -4 49 -10 82 -13 22 -2 40 -5 40 -6 0 -1 17 -3 38 -4 20 -2 37 1 37
6 0 5 10 12 23 17 19 7 23 17 24 53 1 23 -6 54 -14 68 -17 29 -75 60 -118 62
-16 1 -36 6 -43 11 -15 12 -85 27 -159 34 -29 3 -53 8 -53 13 0 11 -29 21 -73
26 -33 4 -98 34 -73 34 5 0 0 8 -10 18 -10 9 -23 25 -29 34 -5 9 -20 30 -33
47 -17 22 -19 31 -9 31 7 0 17 -3 21 -7 3 -4 26 -7 50 -8 28 0 52 -8 65 -19
11 -10 23 -16 28 -13 10 6 67 -5 143 -28 30 -9 62 -16 70 -16 8 0 37 -5 64
-10 48 -9 50 -9 75 22 25 29 27 41 22 107 -1 7 -5 11 -10 7 -5 -3 -13 5 -17
17 -3 12 -15 31 -25 42 -11 11 -19 26 -19 33 0 7 -5 13 -10 13 -6 0 -15 11
-20 25 -5 14 -14 25 -20 25 -5 0 -10 6 -10 13 -1 6 -14 27 -30 46 -16 19 -26
39 -23 44 3 6 1 7 -5 3 -7 -4 -12 -3 -12 2 0 6 -11 20 -25 33 -13 13 -25 29
-25 35 0 6 -6 17 -14 23 -8 6 -16 22 -18 34 -4 21 -1 23 36 22 23 0 46 -3 53
-8 6 -4 26 -9 43 -11 31 -3 80 -44 80 -65 0 -5 4 -11 8 -13 4 -2 23 -25 42
-53 19 -27 41 -54 48 -58 6 -4 12 -15 12 -22 0 -8 4 -15 10 -15 5 0 17 -14 26
-32 9 -17 25 -40 35 -51 10 -12 19 -24 19 -27 0 -7 28 -44 56 -72 9 -10 21
-15 26 -12 4 3 11 -1 13 -9 6 -13 75 -19 75 -6 0 4 9 9 20 12 20 5 42 46 44
82 1 11 -9 28 -22 38 -12 10 -20 23 -17 28 4 5 1 9 -4 9 -6 0 -11 5 -11 11 0
7 -14 26 -30 43 -48 49 -83 107 -71 119 7 7 15 6 26 -3 8 -7 15 -9 15 -5 0 4
11 0 25 -9 14 -9 29 -14 34 -11 14 8 135 -32 157 -52 11 -10 30 -35 44 -55 14
-21 28 -38 31 -38 4 0 12 -13 19 -30 7 -17 15 -30 19 -30 4 0 15 -13 24 -30
10 -17 25 -30 33 -30 8 0 13 -4 10 -8 -7 -12 73 2 107 18 39 19 50 91 17 117
-12 9 -13 14 -2 25 8 8 15 9 20 3 9 -12 27 -17 72 -20 19 -1 43 -5 53 -10 9
-4 23 -2 31 4 7 6 15 9 18 6 2 -3 15 6 28 20 13 14 21 25 17 25 -4 0 -3 10 2
23 14 35 -14 84 -55 99 -19 7 -34 17 -34 23 0 6 -18 11 -42 10 -27 0 -49 6
-60 17 -14 14 -14 19 -2 43 42 81 -4 163 -90 161 -25 -1 -46 -5 -46 -10 0 -5
-3 -7 -6 -3 -3 3 -15 -3 -27 -13 -11 -11 -24 -17 -29 -14 -4 3 -8 0 -8 -6 0
-5 -16 -18 -35 -27 -19 -9 -35 -21 -35 -25 0 -5 -4 -7 -9 -3 -5 3 -15 -1 -23
-8 -12 -13 -24 -13 -58 0 -8 3 -24 7 -35 9 -108 16 -140 23 -143 33 -2 6 -10
11 -18 11 -22 0 -16 28 8 36 12 3 30 15 41 25 11 10 24 16 28 13 4 -2 11 2 16
9 8 13 51 41 65 42 3 0 10 4 15 9 5 5 2 6 -7 2 -8 -4 -7 -1 3 7 29 24 21 107
-12 129 -14 10 -21 18 -16 18 6 0 3 5 -5 10 -26 17 -73 10 -115 -15 -22 -14
-53 -32 -70 -41 -16 -9 -35 -23 -43 -30 -7 -8 -20 -14 -28 -14 -8 0 -14 -4
-14 -9 0 -5 -9 -13 -21 -16 -12 -4 -30 -16 -40 -26 -10 -10 -26 -19 -34 -19
-8 0 -15 -4 -15 -10 0 -5 -11 -12 -25 -16 -14 -3 -25 -11 -25 -16 0 -6 -7 -8
-15 -4 -8 3 -15 0 -15 -6 0 -7 -4 -7 -12 0 -7 5 -33 12 -58 15 -63 8 -107 25
-107 42 0 8 4 15 9 15 11 0 92 53 96 63 2 4 8 7 13 7 13 0 122 70 131 84 4 6
8 8 8 4 0 -7 45 21 92 57 29 24 58 92 42 103 -5 4 -17 19 -26 34 -13 19 -31
29 -68 37 -28 6 -63 17 -78 25 -15 8 -39 12 -54 11 -16 -2 -28 1 -28 6 0 6 -4
8 -9 4 -5 -3 -12 -1 -15 4 -4 5 -17 8 -29 5 -13 -2 -41 5 -62 16 -22 11 -48
20 -60 20 -25 0 -119 32 -123 43 -2 4 -9 5 -15 1 -7 -3 -3 1 8 10 11 8 25 20
32 26 7 5 15 10 19 10 3 0 19 9 35 21 16 11 34 17 40 13 8 -4 9 -3 5 5 -9 15
49 10 79 -6 11 -6 23 -11 28 -12 4 -1 8 -2 10 -2 1 -1 20 -2 42 -4 22 -1 51
-7 65 -12 14 -6 75 -23 135 -38 61 -15 113 -33 117 -39 5 -8 8 -7 8 2 0 7 4
11 9 7 5 -3 12 -1 16 5 4 6 10 8 15 5 5 -3 15 1 23 9 8 8 18 12 22 8 4 -4 6
-2 5 3 -1 6 -1 12 0 15 7 17 5 60 -3 60 -5 0 -7 7 -4 15 6 13 -67 86 -82 82
-3 0 -15 4 -26 10 -11 6 -36 13 -55 16 -67 10 -100 20 -100 29 0 5 -4 7 -8 4
-4 -2 -14 -1 -21 4 -17 10 -6 30 16 30 9 0 13 3 10 6 -4 4 13 16 36 27 23 12
44 23 47 26 16 18 78 37 100 30 45 -14 144 -31 208 -36 54 -4 67 -2 82 14 26
29 41 61 31 67 -5 3 -7 14 -5 24 5 21 -20 52 -63 77 -35 21 -42 35 -18 35 8 0
15 4 15 9 0 5 15 15 32 22 45 18 88 62 88 88 0 11 -4 21 -9 21 -5 0 -11 9 -14
20 -5 21 -36 26 -72 10z m-1105 -883 c31 -12 146 -40 183 -45 20 -2 37 -7 37
-11 0 -4 10 -7 23 -6 12 1 36 -4 53 -11 17 -7 34 -11 36 -8 3 2 17 0 31 -5 28
-11 28 -41 1 -41 -8 0 -14 -4 -14 -10 0 -5 -7 -10 -15 -10 -8 0 -15 -4 -15
-10 0 -5 -7 -10 -15 -10 -8 0 -15 -4 -15 -10 0 -5 -4 -10 -10 -10 -9 0 -122
-69 -146 -89 -7 -5 -15 -7 -18 -4 -3 4 -6 1 -6 -5 0 -15 -149 -9 -179 7 -11 6
-29 11 -40 11 -12 0 -21 3 -21 8 0 4 -16 8 -36 8 -20 1 -39 6 -43 11 -3 5 -17
8 -31 8 -14 -1 -30 3 -36 7 -7 5 -16 8 -20 6 -5 -1 -25 3 -43 10 -35 12 -35
12 -13 28 12 8 27 12 34 8 7 -5 8 -3 4 5 -5 8 0 14 13 18 12 3 21 9 21 14 0 5
6 9 13 9 7 0 19 6 26 13 6 6 16 12 21 12 5 0 15 8 22 18 8 10 22 19 32 21 9 1
21 7 24 12 10 13 62 46 62 39 0 -4 6 0 14 8 14 14 37 15 66 4z m-295 -428 c6
-3 17 -5 25 -4 8 0 17 -2 20 -6 4 -6 69 -22 180 -45 14 -3 32 -8 40 -11 8 -3
21 -7 28 -9 20 -4 42 -25 42 -40 0 -7 9 -18 20 -24 11 -6 20 -17 20 -25 0 -7
3 -15 8 -17 4 -1 25 -29 46 -60 22 -32 43 -58 46 -58 4 0 10 -8 14 -17 7 -23
25 -50 54 -82 27 -31 27 -38 5 -43 -19 -3 -214 42 -223 51 -5 6 -33 12 -60 12
-8 1 -22 3 -30 6 -8 3 -21 7 -28 9 -30 6 -42 14 -42 29 0 9 -4 14 -8 11 -4 -3
-16 11 -27 30 -10 19 -22 34 -27 34 -4 0 -8 6 -8 13 0 7 -8 20 -17 29 -25 23
-43 46 -43 54 0 3 -11 20 -25 36 -14 16 -22 35 -19 40 4 7 2 8 -4 4 -6 -4 -18
6 -27 24 -8 16 -19 30 -24 30 -5 0 -11 8 -14 19 -4 16 1 18 32 17 20 -1 41 -4
46 -7z m-491 -66 c-4 -30 -12 -124 -18 -209 -2 -29 -7 -58 -12 -65 -5 -8 -9
-30 -9 -49 0 -19 -2 -35 -5 -35 -3 -1 -14 -8 -25 -17 -58 -48 -118 -89 -122
-84 -3 3 -14 -5 -24 -17 -10 -12 -18 -18 -19 -14 0 5 -7 2 -15 -5 -8 -7 -20
-17 -27 -23 -22 -17 -95 -55 -106 -55 -5 0 -8 31 -7 78 1 42 7 76 12 75 5 -1
9 24 8 55 0 31 5 75 13 96 7 22 10 46 7 54 -6 16 54 84 67 76 4 -3 8 0 8 5 0
6 7 11 16 11 8 0 13 4 10 8 -3 5 10 15 29 22 19 8 35 17 35 22 0 4 7 8 15 8 8
0 15 5 15 11 0 5 4 8 9 4 6 -3 14 3 20 12 5 10 12 15 16 11 3 -3 18 5 32 18
14 13 29 21 34 19 4 -3 10 -1 14 5 13 22 33 10 29 -17z m255 -55 c17 -18 31
-37 31 -41 0 -8 10 -21 40 -55 9 -9 21 -29 29 -43 7 -14 24 -38 37 -54 13 -15
21 -32 17 -38 -3 -6 -1 -7 5 -3 7 4 17 -3 24 -18 6 -14 15 -26 20 -26 4 0 8
-9 8 -20 0 -11 5 -20 11 -20 6 0 7 -5 2 -12 -9 -15 -23 -146 -24 -230 -1 -32
-7 -62 -13 -67 -7 -6 -11 -28 -10 -51 2 -46 -16 -54 -34 -15 -7 14 -19 28 -27
31 -8 4 -15 13 -15 20 0 8 -7 17 -15 20 -8 4 -15 12 -15 19 0 7 -7 15 -15 19
-8 3 -15 11 -15 18 0 8 -9 21 -20 31 -12 10 -18 22 -15 27 3 6 -1 10 -9 10 -9
0 -16 4 -16 8 0 4 -16 32 -35 62 -33 52 -44 77 -27 67 4 -3 8 25 8 61 2 105
29 332 39 332 2 0 18 -15 34 -32z"/>
</g>
</svg>
